# xmcd CD database file
#
# Track frame offsets:
#	150
#	11583
#	22478
#	41230
#	49472
#	63106
#	74580
#	90268
#	99072
#	120244
#	138438
#	151716
#	165816
#
# Disc length: 2385 seconds
#
# Revision: 0
# Processed by: cddbd v1.5.2PL0 Copyright (c) Steve Scherf et al.
# Submitted via: CDex 1.51
#
DISCID=9c094f0d
DTITLE=Aslak Gjennestad - That's why I sing this way
DYEAR=2007
DGENRE=Country Gospel
TTITLE0=That's why I sing this way
TTITLE1=Washed in the blood - Power in the blood (medley)
TTITLE2=Never ending Alone
TTITLE3=Goodbye and so long to you
TTITLE4=I saw the light
TTITLE5=I've got a tiger by the tail
TTITLE6=Grandpa's prayer
TTITLE7=I'm living in Canaan now
TTITLE8=Like a boy
TTITLE9=I'm gonna be movin'
TTITLE10=Love me tender
TTITLE11=Mountain dew
TTITLE12=I saw the light - reprise
EXTD=YEAR: 2007
EXTT0=
EXTT1=
EXTT2=
EXTT3=
EXTT4=
EXTT5=
EXTT6=
EXTT7=
EXTT8=
EXTT9=
EXTT10=
EXTT11=
EXTT12=
PLAYORDER=
